<svg xmlns="http://www.w3.org/2000/svg" version="1.1" xmlns:xlink="http://www.w3.org/1999/xlink" xmlns:svgjs="http://svgjs.dev/svgjs" width="1000" height="623" viewBox="0 0 1000 623"><g transform="matrix(1,0,0,1,-0.6060606060606233,80.24057919273707)"><svg viewBox="0 0 396 247" data-background-color="#ffffff" preserveAspectRatio="xMidYMid meet" height="623" width="1000" xmlns="http://www.w3.org/2000/svg" xmlns:xlink="http://www.w3.org/1999/xlink"><g id="tight-bounds" transform="matrix(1,0,0,1,0.2400000000000091,-0.09999999999999432)"><svg viewBox="0 0 395.52 247.2" height="247.2" width="395.52"><g><svg></svg></g><g><svg viewBox="0 0 395.52 247.2" height="247.2" width="395.52"><g transform="matrix(1,0,0,1,75.54432,96.74871116147308)"><svg viewBox="0 0 244.43135999999998 53.702577677053824" height="53.702577677053824" width="244.43135999999998"><g><svg viewBox="0 0 244.43135999999998 53.702577677053824" height="53.702577677053824" width="244.43135999999998"><g><svg viewBox="0 0 244.43135999999998 53.702577677053824" height="53.702577677053824" width="244.43135999999998"><g><svg viewBox="0 0 244.43135999999998 53.702577677053824" height="53.702577677053824" width="244.43135999999998"><g id="textblocktransform"><svg viewBox="0 0 244.43135999999998 53.702577677053824" height="53.702577677053824" width="244.43135999999998" id="textblock"><g><svg viewBox="0 0 244.43135999999998 53.702577677053824" height="53.702577677053824" width="244.43135999999998"><g transform="matrix(1,0,0,1,0,0)"><svg width="244.43135999999998" viewBox="3.950000047683716 -34.29999923706055 158.83999633789062 34.89999771118164" height="53.702577677053824" data-palette-color="#ffffff"><path d="M3.95 0L3.95-34.3 21.8-34.3Q26.95-34.3 29.7-31.65 32.45-29 32.45-24.55L32.45-24.55Q32.45-21.05 30.78-18.5 29.1-15.95 26.15-14.85L26.15-14.85 34.05 0 28.75 0 21.3-14.15 8.7-14.15 8.7 0 3.95 0ZM8.7-18.3L21.55-18.3Q24.35-18.3 26-19.95 27.65-21.6 27.65-24.5L27.65-24.5Q27.65-27.2 26.1-28.68 24.55-30.15 21.55-30.15L21.55-30.15 8.7-30.15 8.7-18.3ZM46.6 0.6Q43.2 0.6 40.55-1 37.9-2.6 37.9-6.8L37.9-6.8Q37.9-11.85 42.4-13.73 46.9-15.6 55.4-15.6L55.4-15.6 55.4-18.5Q55.4-20.8 54.1-22.03 52.8-23.25 49.4-23.25L49.4-23.25Q46.2-23.25 44.82-22.05 43.45-20.85 43.45-19.1L43.45-19.1 43.45-18.5 39.2-18.5Q39.15-18.8 39.15-19.6L39.15-19.6Q39.15-23.1 42.05-25 44.95-26.9 49.8-26.9L49.8-26.9Q54.7-26.9 57.25-24.85 59.8-22.8 59.8-19.05L59.8-19.05 59.8-4.8Q59.8-3.9 60.3-3.48 60.8-3.05 61.55-3.05L61.55-3.05 63.55-3.05 63.55-0.2Q62.25 0.4 60.15 0.4L60.15 0.4Q58.45 0.4 57.3-0.63 56.15-1.65 55.75-3.35L55.75-3.35 55.4-3.35Q54.05-1.5 51.72-0.45 49.4 0.6 46.6 0.6L46.6 0.6ZM47.75-3.05Q49.7-3.05 51.45-3.85 53.2-4.65 54.3-6.23 55.4-7.8 55.4-10.05L55.4-10.05 55.4-11.95Q48.95-11.95 45.72-10.93 42.5-9.9 42.5-7.05L42.5-7.05Q42.5-4.9 43.82-3.98 45.15-3.05 47.75-3.05L47.75-3.05ZM67.25 0L67.25-26.3 70.6-26.3 71.1-22.75 71.45-22.75Q74.15-26.9 79.35-26.9L79.35-26.9Q84.45-26.9 86.15-22.75L86.15-22.75 86.45-22.75Q87.8-24.75 89.97-25.83 92.15-26.9 94.6-26.9L94.6-26.9Q102.35-26.9 102.35-18.95L102.35-18.95 102.35 0 97.95 0 97.95-18.15Q97.95-21 96.7-22.13 95.45-23.25 93.25-23.25L93.25-23.25Q90.6-23.25 88.8-21.15 87-19.05 87-15.55L87-15.55 87 0 82.6 0 82.6-18.15Q82.6-21 81.4-22.13 80.2-23.25 78-23.25L78-23.25Q76.3-23.25 74.85-22.33 73.4-21.4 72.52-19.65 71.65-17.9 71.65-15.55L71.65-15.55 71.65 0 67.25 0ZM124.04 0L124.04-34.3 128.79-34.3 128.79 0 124.04 0ZM146.24 0L146.24-30.15 134.44-30.15 134.44-34.3 162.79-34.3 162.79-30.15 150.99-30.15 150.99 0 146.24 0Z" opacity="1" transform="matrix(1,0,0,1,0,0)" fill="#ffffff" class="wordmark-text-0" data-fill-palette-color="primary" id="text-0"></path></svg></g></svg></g></svg></g></svg></g><g></g></svg></g></svg></g></svg></g><g><path d="M82.113 84.071A122.216 122.216 0 0 1 313.407 84.071L308.564 84.071A117.373 117.373 0 0 0 86.956 84.071L82.113 84.071M82.113 163.129A122.216 122.216 0 0 0 313.407 163.129L308.564 163.129A117.373 117.373 0 0 1 86.956 163.129L82.113 163.129" fill="#ffffff" stroke="transparent" data-fill-palette-color="tertiary"></path></g></svg></g><defs></defs></svg><rect width="395.52" height="247.2" fill="none" stroke="none" visibility="hidden"></rect></g></svg></g></svg>